<?xml version="1.0" encoding="utf-8"?>
<!-- Generator: Adobe Illustrator 26.0.2, SVG Export Plug-In . SVG Version: 6.00 Build 0)  -->
<svg version="1.1" id="Calque_1" xmlns="http://www.w3.org/2000/svg" xmlns:xlink="http://www.w3.org/1999/xlink" x="0px" y="0px"
	 viewBox="0 0 1920 1920" style="enable-background:new 0 0 1920 1920;" xml:space="preserve">
<style type="text/css">
	.st0{fill:#44A12B;stroke:#44A12B;}
	.st1{fill:#44A12B;}
	.st2{fill:#FFFFFF;}
</style>
<path class="st0" d="M94,1038.4c0,0,683.9-598.7,861.2-602.7c177.3-4,860.2,564.2,860.2,564.2l-315.3,7.1c0,0,66.2,666,11.5,723.2
	c-54.7,57.2-1006.5,73.8-1059,23.7c-52.5-50.2-16.2-722.9-16.2-722.9L94,1038.4z"/>
<g>
	<g>
		<path class="st1" d="M1572.5,209.5c-103.3,1.9-472.7,187.8-265,350.5C1515.3,722.7,1539.7,299,1572.5,209.5z"/>
	</g>
	<g>
		<g>
			<path class="st2" d="M1320,545.8c41.5-89.3,98.1-171.5,164.1-244.4c18.8-20.8,38.4-41.5,59.6-59.9c3.4-3-1.6-7.9-4.9-5
				c-10.3,8.9-20.1,18.6-29.7,28.3c-25.1,25.3-48.8,52.1-71.1,79.9c-48.8,60.7-91.2,126.8-124,197.5
				C1312.1,546.4,1318.1,549.9,1320,545.8L1320,545.8z"/>
		</g>
	</g>
</g>
<path class="st2" d="M785.9,1311c-9.3,9.5-164.2,10.1-172.4,2.1c-8.2-8-13.2-161-2.1-172.3c11.1-11.4,164.2-10.1,172.3-2.1
	C792,1146.6,795.2,1301.4,785.9,1311z"/>
<path class="st2" d="M1327.3,1292.3c-9.3,9.5-164.2,10.1-172.4,2.1c-8.2-8-13.2-161-2.1-172.4c11.1-11.4,164.2-10.1,172.3-2.1
	C1333.4,1127.9,1336.6,1282.7,1327.3,1292.3z"/>
<path class="st2" d="M1148.8,1777.2c-19.8,13.5-346.9,15.5-364.2,4.4c-17.2-11.2-26.4-226.2-2.9-242.2
	c23.5-16.1,346.9-15.5,364.1-4.4C1163.1,1546.1,1168.5,1763.7,1148.8,1777.2z"/>
</svg>
