<?xml version="1.0" encoding="utf-8"?>
<!-- Generator: Adobe Illustrator 26.0.2, SVG Export Plug-In . SVG Version: 6.00 Build 0)  -->
<svg version="1.1" id="Layer_1" xmlns="http://www.w3.org/2000/svg" xmlns:xlink="http://www.w3.org/1999/xlink" x="0px" y="0px"
	 viewBox="0 0 1000 1000" style="enable-background:new 0 0 1000 1000;" xml:space="preserve">
<style type="text/css">
	.st0{fill:#FFFFFF;}
</style>
<path class="st0" d="M860.7,329.9H119.2c-6.6,0-12-5.4-12-12v-64.5c0-6.6,5.4-12,12-12h741.6c6.6,0,12,5.4,12,12v64.5
	C872.7,324.5,867.3,329.9,860.7,329.9z"/>
<path class="st0" d="M860.7,534H119.2c-6.6,0-12-5.4-12-12v-64.5c0-6.6,5.4-12,12-12h741.6c6.6,0,12,5.4,12,12V522
	C872.7,528.6,867.3,534,860.7,534z"/>
<path class="st0" d="M860.7,738.1H119.2c-6.6,0-12-5.4-12-12v-64.5c0-6.6,5.4-12,12-12h741.6c6.6,0,12,5.4,12,12v64.5
	C872.7,732.7,867.3,738.1,860.7,738.1z"/>
</svg>
