<?xml version="1.0" encoding="utf-8"?>
<!-- Generator: Adobe Illustrator 26.0.2, SVG Export Plug-In . SVG Version: 6.00 Build 0)  -->
<svg version="1.1" id="Layer_1" xmlns="http://www.w3.org/2000/svg" xmlns:xlink="http://www.w3.org/1999/xlink" x="0px" y="0px"
	 viewBox="0 0 1000 1000" style="enable-background:new 0 0 1000 1000;" xml:space="preserve">
<style type="text/css">
	.st0{fill:#FFFFFF;}
</style>
<path class="st0" d="M801.1,710.4L155.3,346.1c-5.7-3.2-7.8-10.6-4.6-16.3l31.7-56.2c3.2-5.7,10.6-7.8,16.3-4.6l645.9,364.3
	c5.7,3.2,7.8,10.6,4.6,16.3l-31.7,56.2C814.2,711.6,806.9,713.7,801.1,710.4z"/>
<path class="st0" d="M835.6,348.6L187.2,708.3c-5.8,3.2-13.1,1.1-16.3-4.7l-31.3-56.4c-3.2-5.8-1.1-13.1,4.7-16.3l648.5-359.7
	c5.8-3.2,13.1-1.1,16.3,4.7l31.3,56.4C843.5,338.1,841.4,345.4,835.6,348.6z"/>
</svg>
